# Blender 5.0.1
# www.blender.org
mtllib Pizza3.mtl
o Cube
v -0.500000 0.050500 0.500000
v -0.500000 -0.050000 0.500000
v -0.500000 0.050500 -0.500000
v -0.500000 -0.050000 -0.500000
v -0.487616 0.050500 -0.490930
v -0.474902 0.050500 -0.485002
v -0.487749 0.050500 0.487749
v -0.474902 0.050500 0.474902
v -0.480200 0.040000 0.480200
v -0.480135 0.040000 -0.470299
v -0.060108 0.050500 0.474902
v 0.000000 -0.002214 0.487749
v 0.000000 -0.002214 0.500000
v -0.055664 0.050500 0.487749
v -0.055664 0.050500 0.500000
v 0.000000 -0.050000 0.500000
v -0.055664 0.040000 0.480200
v -0.040907 0.012209 0.500000
v -0.040907 0.012209 0.487749
v 0.000000 0.050500 0.523868
v -0.033467 0.050500 0.515468
v 0.000000 0.040000 0.523868
v -0.033467 0.040000 0.515468
v -0.051487 0.040000 0.487749
v 0.000000 0.040000 0.474902
v 0.500000 0.050500 0.500000
v 0.500000 -0.050000 0.500000
v 0.500000 0.050500 -0.500000
v 0.500000 -0.050000 -0.500000
v 0.487616 0.050500 -0.490930
v 0.474902 0.050500 -0.485002
v 0.487749 0.050500 0.487749
v 0.474902 0.050500 0.474902
v 0.480200 0.040000 0.480200
v 0.480135 0.040000 -0.470299
v 0.060108 0.050500 0.474902
v 0.055664 0.050500 0.487749
v 0.055664 0.050500 0.500000
v 0.055664 0.040000 0.480200
v 0.040907 0.012209 0.500000
v 0.040907 0.012209 0.487749
v 0.033467 0.050500 0.515468
v 0.033467 0.040000 0.515468
v 0.051487 0.040000 0.487749
vn -0.8944 0.4472 -0.0000
vn -1.0000 -0.0000 -0.0000
vn -0.0000 0.3733 -0.9277
vn -0.0000 -0.0000 -1.0000
vn -0.4234 0.8009 0.4234
vn -0.8208 0.5608 0.1084
vn -0.5756 0.5809 0.5756
vn 0.8143 0.5805 0.0001
vn 0.2745 0.9616 -0.0000
vn 0.8120 0.5837 0.0001
vn -0.0000 0.9616 -0.2745
vn -0.0000 0.6296 0.7770
vn -0.0000 0.8899 -0.4562
vn -0.0000 0.9500 0.3122
vn -0.1632 0.9769 0.1376
vn -0.8584 0.5130 -0.0000
vn 0.1772 0.9842 -0.0000
vn -0.0000 0.4505 0.8928
vn -0.0562 0.9911 0.1205
vn -0.0000 -0.0000 1.0000
vn 0.0562 0.9911 0.1205
vn -0.9200 -0.2288 0.3183
vn -0.0000 0.5837 -0.8119
vn 0.1632 0.9769 0.1376
vn -0.0000 1.0000 -0.0000
vn 0.6983 0.7158 -0.0000
vn 0.6979 0.7162 0.0014
vn 0.9323 0.3618 0.0061
vn 0.9312 0.3644 0.0052
vn -0.5729 -0.0326 0.8190
vn -0.7669 -0.2473 0.5922
vn -0.7455 -0.2965 0.5970
vn -0.0000 -1.0000 -0.0000
vn 0.1846 0.1754 0.9670
vn -0.0000 0.2911 0.9567
vn -0.0000 0.2183 0.9759
vn 0.2411 0.0918 0.9662
vn 0.9292 0.3696 -0.0000
vn 1.0000 -0.0000 -0.0000
vn 0.8944 0.4472 -0.0000
vn 0.4234 0.8009 0.4234
vn 0.8208 0.5608 0.1084
vn -0.2745 0.9616 -0.0000
vn -0.8143 0.5805 0.0001
vn -0.8120 0.5837 0.0001
vn -0.0000 0.4472 0.8944
vn 0.8584 0.5130 -0.0000
vn 0.5756 0.5809 0.5756
vn 0.9200 -0.2288 0.3183
vn -0.6983 0.7158 -0.0000
vn -0.6979 0.7162 0.0014
vn -0.9323 0.3618 0.0061
vn 0.5729 -0.0326 0.8190
vn 0.7669 -0.2473 0.5922
vn 0.7455 -0.2965 0.5970
vn -0.1846 0.1754 0.9670
vn -0.2411 0.0918 0.9662
vn -0.9312 0.3644 0.0052
vn -0.9292 0.3696 -0.0000
vn -0.5811 -0.0000 0.8138
vn -0.1772 0.9842 -0.0000
vn 0.5811 -0.0000 0.8138
vt 0.022268 0.944565
vt 0.102368 0.547171
vt 0.102120 0.944569
vt 0.897683 0.507611
vt 0.102318 0.507069
vt 0.123173 0.117633
vt 0.112753 0.494347
vt 0.116365 0.114237
vt 0.002260 0.559093
vt 0.012535 0.939698
vt 0.002260 0.936699
vt 0.112534 0.989419
vt 0.455539 0.983437
vt 0.459250 0.986977
vt 0.453940 0.117915
vt 0.121485 0.500412
vt 0.022345 0.547295
vt 0.012505 0.550897
vt 0.457457 0.113177
vt 0.112049 0.503325
vt 0.467463 0.969238
vt 0.888122 0.504002
vt 0.447328 0.114019
vt 0.457494 0.112684
vt 0.118738 0.994565
vt 0.878809 0.501176
vt 0.499062 0.963386
vt 0.473240 0.972385
vt 0.499096 0.944637
vt 0.466984 0.982259
vt 0.474351 0.994167
vt 0.499004 0.994513
vt 0.498997 0.997918
vt 0.546644 0.112822
vt 0.475385 0.101507
vt 0.529104 0.101609
vt 0.502414 0.098052
vt 0.478090 0.991518
vt 0.499030 0.980306
vt 0.499054 0.967356
vt 0.897302 0.547557
vt 0.975958 0.944996
vt 0.896085 0.944935
vt 0.880677 0.118495
vt 0.887527 0.495152
vt 0.985709 0.940135
vt 0.997226 0.559436
vt 0.995997 0.937143
vt 0.885505 0.989776
vt 0.542511 0.983478
vt 0.895391 0.984900
vt 0.549995 0.118008
vt 0.977175 0.547619
vt 0.546523 0.113263
vt 0.887515 0.115116
vt 0.530639 0.969267
vt 0.556633 0.114214
vt 0.879283 0.994917
vt 0.538786 0.987014
vt 0.524850 0.972410
vt 0.531069 0.982289
vt 0.523658 0.994190
vt 0.519929 0.991538
vt 0.102666 0.984534
vt 0.459397 0.992165
vt 0.987005 0.551230
vt 0.538621 0.992203
s 1
usemtl PizzaBox
f 1/1/1 4/2/2 2/3/2
f 28/4/3 4/2/4 3/5/3
f 8/6/5 10/7/6 9/8/7
f 10/9/8 7/10/9 9/11/10
f 7/12/11 15/13/12 14/14/13
f 11/15/14 6/16/15 8/6/5
f 3/17/16 7/10/9 5/18/17
f 17/19/18 8/6/5 9/8/7
f 5/20/19 10/7/6 6/16/15
f 15/13/12 2/3/20 18/21/20
f 28/4/3 5/20/19 30/22/21
f 17/23/22 14/24/22 11/15/22
f 14/14/13 9/25/23 7/12/11
f 30/22/21 6/16/15 31/26/24
f 13/27/25 19/28/26 18/21/27
f 16/29/20 18/21/20 2/3/20
f 18/21/27 24/30/28 15/13/29
f 21/31/30 22/32/20 20/33/20
f 24/30/31 21/31/30 14/14/32
f 37/34/25 21/35/25 42/36/25
f 20/37/25 42/36/25 21/35/25
f 23/38/33 24/30/33 25/39/33
f 22/32/33 23/38/33 25/39/33
f 19/28/34 12/40/35 25/39/36
f 24/30/37 19/28/34 25/39/36
f 15/13/29 24/30/28 14/14/38
f 29/41/39 26/42/40 27/43/39
f 33/44/41 35/45/42 31/26/24
f 32/46/43 35/47/44 34/48/45
f 32/49/11 38/50/12 26/51/46
f 36/52/14 33/44/41 31/26/24
f 28/53/47 32/46/43 26/42/40
f 33/44/41 39/54/18 34/55/48
f 30/22/21 31/26/24 35/45/42
f 27/43/20 38/50/12 40/56/20
f 39/57/49 36/52/49 37/34/49
f 34/58/23 37/59/13 32/49/11
f 41/60/50 13/27/25 40/56/51
f 40/56/20 16/29/20 27/43/20
f 40/56/51 44/61/52 41/60/50
f 22/32/20 42/62/53 20/33/20
f 42/62/53 44/61/54 37/59/55
f 31/26/24 11/15/14 36/52/14
f 36/52/14 14/24/25 37/34/25
f 43/63/33 25/39/33 44/61/33
f 22/32/33 25/39/33 43/63/33
f 41/60/56 25/39/36 12/40/35
f 44/61/57 25/39/36 41/60/56
f 38/50/58 37/59/59 44/61/52
f 16/29/33 2/3/33 4/2/33
f 1/1/1 3/17/16 4/2/2
f 28/4/3 29/41/4 4/2/4
f 8/6/5 6/16/15 10/7/6
f 10/9/8 5/18/17 7/10/9
f 7/12/11 1/64/46 15/13/12
f 3/17/16 1/1/1 7/10/9
f 17/19/18 11/15/14 8/6/5
f 15/13/12 1/64/46 2/3/20
f 28/4/3 3/5/3 5/20/19
f 14/14/13 17/65/23 9/25/23
f 30/22/21 5/20/19 6/16/15
f 13/27/25 12/40/25 19/28/26
f 16/29/20 13/27/20 18/21/20
f 18/21/27 19/28/26 24/30/28
f 21/31/30 23/38/60 22/32/20
f 24/30/31 23/38/60 21/31/30
f 37/34/25 14/24/25 21/35/25
f 29/41/39 28/53/47 26/42/40
f 33/44/41 34/55/48 35/45/42
f 32/46/43 30/66/61 35/47/44
f 32/49/11 37/59/13 38/50/12
f 28/53/47 30/66/61 32/46/43
f 33/44/41 36/52/14 39/54/18
f 27/43/20 26/51/46 38/50/12
f 34/58/23 39/67/23 37/59/13
f 41/60/50 12/40/25 13/27/25
f 40/56/20 13/27/20 16/29/20
f 40/56/51 38/50/58 44/61/52
f 22/32/20 43/63/62 42/62/53
f 42/62/53 43/63/62 44/61/54
f 31/26/24 6/16/15 11/15/14
f 36/52/14 11/15/14 14/24/25
f 4/2/33 29/41/33 16/29/33
f 29/41/33 27/43/33 16/29/33
